<?xml version="1.0" encoding="utf-8"?>
<!-- Generator: Adobe Illustrator 19.0.0, SVG Export Plug-In . SVG Version: 6.00 Build 0)  -->
<svg version="1.1" id="Layer_1" xmlns="http://www.w3.org/2000/svg" xmlns:xlink="http://www.w3.org/1999/xlink" x="0px" y="0px"
	 viewBox="0 0 96 96" style="enable-background:new 0 0 96 96;" xml:space="preserve">
<style type="text/css">
	.st0{fill:#333333;}
</style>
<g id="XMLID_1_">
	<path id="XMLID_3_" class="st0" d="M78.9,36.5L49.3,21.7c-0.8-0.4-1.8-0.4-2.6,0L17.1,36.5c-0.6,0.3-1,0.8-1.3,1.4
		c-0.2,0.4-0.3,1-0.3,1.3v17c0,1.6,1.3,3,3,3s3-1.3,3-3V42.6L48,53.7l30.6-11.8c1.1-0.4,1.8-1.5,1.9-2.6
		C80.5,38.1,79.9,37,78.9,36.5z"/>
	<path id="XMLID_4_" class="st0" d="M48,59.8c-0.4,0-0.8-0.1-1.1-0.2l-19.5-8.1v8.9c0,1.1,0.6,2.1,1.6,2.6c5.1,2.5,10.3,5.7,19,5.7
		c8.8,0,14-3.1,19-5.7c1-0.5,1.6-1.5,1.6-2.6v-8.3l-19.6,7.5C48.7,59.8,48.4,59.8,48,59.8z"/>
	<path id="XMLID_5_" class="st0" d="M18.5,62.8c-1.6,0-3,1.3-3,3v5.9c0,1.6,1.3,3,3,3s3-1.3,3-3v-5.9C21.4,64.1,20.1,62.8,18.5,62.8
		z"/>
</g>
</svg>
