<?xml version="1.0" encoding="utf-8"?>
<!-- Generator: Adobe Illustrator 19.0.0, SVG Export Plug-In . SVG Version: 6.00 Build 0)  -->
<svg version="1.1" id="Layer_1" xmlns="http://www.w3.org/2000/svg" xmlns:xlink="http://www.w3.org/1999/xlink" x="0px" y="0px"
	 viewBox="0 0 96 96" style="enable-background:new 0 0 96 96;" xml:space="preserve">
<style type="text/css">
	.st0{fill:#333333;}
</style>
<g id="XMLID_2_">
	<path id="XMLID_7_" class="st0" d="M66.3,62.9c2.5,0,4.6-2.1,4.6-4.6l0-25.2c0-2.5-2.1-4.6-4.6-4.6H29.7c-2.5,0-4.6,2.1-4.6,4.6
		v25.2c0,2.5,2.1,4.6,4.6,4.6h-9.2c0,2.5,2.1,4.6,4.6,4.6h45.8c2.5,0,4.6-2.1,4.6-4.6H66.3z M29.7,33.1h36.7v25.2H29.7V33.1z
		 M48,65.2c-1.3,0-2.3-1-2.3-2.3c0-1.3,1-2.3,2.3-2.3s2.3,1,2.3,2.3C50.3,64.2,49.3,65.2,48,65.2z"/>
</g>
</svg>
